<svg xmlns="http://www.w3.org/2000/svg" aria-hidden="true" style="position:absolute;width:0;height:0;overflow:hidden">
  <defs>
    <symbol id="icon-benefits-icon-1" viewBox="0 0 32 32">
      <path fill="#2e2f42" d="m30.773 22.098-8.443-8.505.937-4.615c.242.094.499.143.759.145h.032c1.192 0 2.159-.967 2.159-2.159s-.967-2.159-2.159-2.159c-1.192 0-2.159.967-2.159 2.159 0 .26.046.508.13.739l-.005-.015-4.96.605L8.973.16A.53.53 0 0 0 8.597 0a.5362.5362 0 0 0-.373.155L6.711 1.659c-.097.097-.156.23-.156.377s.06.281.156.377l.814.825C6.382 5.3 5.709 7.76 5.709 10.377c0 4.106 1.656 7.825 4.336 10.526l-.001-.001c.042.041.091.073.146.098a2.986 2.986 0 0 0-.052.546v6.188h-6.4c-1.472.001-2.666 1.194-2.667 2.666v1.067c0 .295.239.533.534.533h24.534c.294 0 .534-.239.534-.534v-1.067c-.002-1.472-1.195-2.665-2.667-2.666h-6.4v-2.742c1.003.21 2.024.317 3.049.32 2.58-.003 5.005-.663 7.117-1.822l-.077.039.819.823a.534.534 0 0 0 .377.16c.14-.001.274-.056.373-.155l1.512-1.505c.096-.097.156-.23.156-.377s-.06-.28-.156-.377zM23.28 6.233c.193-.192.458-.31.752-.31.589 0 1.067.478 1.067 1.066s-.477 1.066-1.067 1.066h-.003c-.587-.003-1.061-.479-1.061-1.066 0-.296.12-.563.315-.756h-.002zm-1.256 3.505-.599 2.945-1.175-1.182 1.774-1.764zm-.605-.902-1.92 1.909-1.485-1.493 3.405-.415zM24.004 28.8c.884 0 1.6.716 1.6 1.6v.534H2.138V30.4c0-.884.716-1.6 1.6-1.6h20.267zm-7.466-2.134v1.067h-5.334v-1.067h5.334zM11.204 25.6v-4.053c0-1.294 1.197-2.346 2.666-2.346s2.667 1.053 2.667 2.346V25.6h-5.334zm6.4-1.696v-2.357c0-1.882-1.675-3.413-3.733-3.413h-.059c-1.353 0-2.54.707-3.213 1.771l-.009.016c-2.36-2.482-3.811-5.846-3.811-9.549 0-2.314.567-4.496 1.569-6.414l-.036.077 18.602 18.709c-1.823.947-3.98 1.502-6.266 1.502-1.079 0-2.128-.124-3.136-.357l.093.018zm11.289-.683L7.836 2.041l.755-.752 7.935 7.98c.003 0 .006.007.009.009l13.114 13.191-.757.752z" style="fill:var(--color1, #2e2f42)"/>
      <path fill="#4d5ae5" d="M13.876 20.267h-.007c-.884 0-1.6.716-1.6 1.6s.715 1.599 1.597 1.6h.007c.884 0 1.6-.716 1.6-1.6s-.715-1.599-1.597-1.6zm.373 1.978a.5297.5297 0 0 1-.376.155.5339.5339 0 0 1-.534-.534v-.002c.002-.292.238-.529.53-.53.293.002.531.24.531.534 0 .148-.06.281-.157.378h.005z" style="fill:var(--color2, #4d5ae5)"/>
    </symbol>
    <symbol id="icon-benefits-icon-2" viewBox="0 0 32 32">
      <path fill="#2e2f42" d="M31.297 15.301C31.295 6.849 24.442-.002 15.989 0S.686 6.855.688 15.308C.69 22.096 5.11 27.851 11.229 29.853l.108.031c.06.019.123.029.187.029.121 0 .239-.032.342-.093.135-.08.236-.207.284-.357l3.865-12.25c1.054-.004 1.906-.859 1.906-1.913 0-1.057-.856-1.913-1.913-1.913-.303 0-.59.07-.844.196l.011-.005-5.106-5.107a.6378.6378 0 0 0-1.089.451c0 .176.071.336.187.451l5.104 5.109c-.121.241-.191.525-.191.826 0 .601.283 1.137.723 1.48l.004.003-3.683 11.673C3.846 25.783.119 17.71 2.801 10.432 5.482 3.155 13.556-.573 20.833 2.109s11.004 10.755 8.323 18.032c-1.345 3.581-4.004 6.406-7.374 7.938l-.088.036-.398-1.875c-.063-.291-.318-.505-.624-.505-.163 0-.312.061-.425.162l.001-.001-3.837 3.425a.6341.6341 0 0 0-.214.477c0 .283.185.524.441.607l.005.001 4.899 1.564c.058.02.126.031.196.031a.6368.6368 0 0 0 .622-.774l.001.004-.391-1.839c5.528-2.374 9.329-7.772 9.329-14.057v-.034.002zm-15.305-.637c.352 0 .638.286.638.638s-.286.638-.638.638c-.352 0-.638-.286-.638-.638s.286-.638.638-.638zm2.101 14.863 2.184-1.948.603 2.84-2.787-.892z" style="fill:var(--color1, #2e2f42)"/>
      <path fill="#4d5ae5" d="M15.354 3.185V4.46c0 .352.285.638.637.638s.638-.285.638-.638V3.185c-.014-.341-.294-.613-.637-.613s-.624.271-.637.611v.001zM3.876 14.664c-.352 0-.637.285-.637.637s.285.637.638.637h1.275a.637.637 0 1 0 0-1.274H3.877zm24.232 1.275c.352 0 .637-.285.637-.637s-.285-.637-.637-.637h-1.275c-.341.014-.613.294-.613.637s.271.624.611.637H28.107z" style="fill:var(--color2, #4d5ae5)"/>
    </symbol>
    <symbol id="icon-benefits-icon-3" viewBox="0 0 32 32">
      <path fill="#4d5ae5" d="M14.925 14.965h1.066v4.797h-1.066v-4.797zm4.265 2.132h1.066v2.665H19.19v-2.665zm-8.529 1.599h1.066v1.066h-1.066v-1.066zm-3.198-.533h1.066v1.599H7.463v-1.599z" style="fill:var(--color2, #4d5ae5)"/>
      <path fill="#2e2f42" d="M1.599 28.291h25.587c.883 0 1.599-.716 1.599-1.599v-2.133c0-.883-.716-1.599-1.599-1.599h-.534V9.667l3.028-2.868c.207.105.452.166.711.166.888 0 1.608-.72 1.608-1.608s-.72-1.608-1.608-1.608c-.888 0-1.608.72-1.608 1.608 0 .247.055.48.155.689l-.004-.01-2.282 2.163v-1.23c0-.883-.716-1.599-1.599-1.599H3.73c-.883 0-1.599.716-1.599 1.599V22.961h-.533c-.883 0-1.599.716-1.599 1.599v2.134c0 .883.716 1.599 1.599 1.599zM30.384 4.837c.294 0 .533.239.533.533s-.239.533-.533.533c-.294 0-.533-.239-.533-.533s.239-.533.533-.533zM3.199 6.969c0-.295.239-.534.533-.534h21.322c.294 0 .533.239.533.534v2.238l-1.066 1.013V8.035c0-.295-.238-.533-.533-.533H4.798c-.295 0-.533.239-.533.533v13.326c0 .295.239.534.533.534h19.19c.294 0 .533-.239.533-.534v-9.674l1.066-1.01V22.96H3.199V6.969zm4.797 6.93h-.005c-.883 0-1.599.716-1.599 1.599s.716 1.599 1.599 1.599c.432 0 .824-.171 1.112-.45l1.853.93a.532.532 0 0 0 .636-.123l3.938-4.431 3.872 2.902a.532.532 0 0 0 .686-.04l3.365-3.188v8.131H5.33V8.568h18.124v2.66L19.682 14.8l-3.905-2.928a.5313.5313 0 0 0-.319-.106c-.158 0-.3.069-.398.178v.001l-3.993 4.493-1.493-.746c.011-.064.018-.129.021-.194 0-.883-.716-1.599-1.599-1.599zm.533 1.599c0 .294-.239.533-.533.533s-.533-.239-.533-.533c0-.294.239-.533.533-.533s.533.239.533.533zm3.198 8.528h5.331v.533c0 .294-.238.533-.533.533h-4.264a.5335.5335 0 0 1-.533-.533v-.533zm-10.661.534c0-.294.239-.533.533-.533h9.062v.533c0 .883.716 1.599 1.599 1.599h4.265c.883 0 1.599-.716 1.599-1.599v-.534h9.061c.295 0 .534.238.534.533v2.133c0 .294-.239.533-.534.533H1.599a.5335.5335 0 0 1-.533-.533v-2.133z" style="fill:var(--color1, #2e2f42)"/>
    </symbol>
    <symbol id="icon-benefits-icon-4" viewBox="0 0 32 32">
      <path fill="#4d5ae5" d="M31.974 4.524c-.064-.191-.227-.332-.427-.362h-.003l-1.911-.278-.855-1.731c-.179-.365-.776-.365-.956 0l-.855 1.731-1.91.278a.5334.5334 0 0 0-.296.91l1.383 1.348-.326 1.903c-.034.2.048.402.212.521.166.12.383.136.562.04l1.709-.899 1.709.899c.072.038.157.06.247.06a.5339.5339 0 0 0 .526-.626v.003l-.326-1.903L31.84 5.07a.5348.5348 0 0 0 .134-.55l.001.004zm-2.463 1.327a.5335.5335 0 0 0-.153.472l.191 1.114-1-.526c-.072-.039-.158-.062-.248-.062s-.177.023-.251.063l.003-.001-1 .526.191-1.114a.5021.5021 0 0 0 .008-.09c0-.15-.062-.285-.161-.382l-.81-.79 1.119-.162a.5314.5314 0 0 0 .401-.292l.5-1.013.501 1.013c.078.157.228.267.402.292l1.119.162-.809.79zm-3.377 14.671h-1.067v1.067h1.067v-1.067zm0 2.133h-1.067v1.067h1.067v-1.067z" style="fill:var(--color2, #4d5ae5)"/>
      <path fill="#4d5ae5" d="M27.2 21.589h-1.067v1.067H27.2v-1.067zm-2.133 0H24v1.067h1.067v-1.067zm-2.667 4.8h-1.067v1.067H22.4v-1.067zm0 2.134h-1.067v1.067H22.4v-1.067zm1.067-1.067H22.4v1.067h1.067v-1.067zM21.334 27.456h-1.067v1.067h1.067v-1.067zM16 24.256h-1.066v1.067H16v-1.067zm0 2.133h-1.066v1.067H16v-1.067zm1.067-1.066H16v1.067h1.067v-1.067zm-2.133 0h-1.067v1.067h1.067v-1.067zM5.867 6.122H4.801v1.066h1.066V6.122zm0 2.133H4.801v1.067h1.066V8.256zm1.066-1.066H5.867v1.067h1.066V7.189zm-2.133 0H3.733v1.067H4.8V7.189z" style="fill:var(--color2, #4d5ae5)"/>
      <path fill="#2e2f42" d="M24.715 14.159c-.28-.377-.699-.636-1.179-.704l-.009-.001a1.6677 1.6677 0 0 0-.254-.018c-.411 0-.789.139-1.09.374l.004-.003-1.252.96-1.898 1.417-1.358-.541c2.421-1.086 4.114-3.508 4.114-6.32 0-3.823-3.122-6.933-6.961-6.933S7.87 5.5 7.87 9.323c0 1.386.414 2.674 1.12 3.758l-2.769-.024c-.008 0-.015.005-.024.005a.4945.4945 0 0 0-.159.032l.004-.001c-.013.005-.026.008-.038.014-.006.002-.013.003-.019.007l-3.234 1.597-1.893.911a.4288.4288 0 0 0-.064.036l.001-.001c-.482.324-.794.866-.794 1.482 0 .297.073.576.201.822l-.005-.01c.22.429.595.745 1.056.89.161.053.345.083.537.083.308 0 .598-.078.851-.216l-.009.005 1.388-.738 2.264-1.169 1.357-.008-5.442 5.415c0 .001-.001.001-.002.002L.858 23.548c-.303.299-.49.714-.49 1.173v.005c0 .445.173.863.49 1.178.325.323.752.485 1.179.485s.855-.162 1.18-.485l1.314-1.308 1.741-1.3.901.897-3.102 3.088c-.303.299-.49.714-.49 1.173v.005c0 .445.174.863.49 1.179.325.323.752.485 1.18.485s.855-.162 1.18-.485l3.482-3.466c0-.001 0-.002.001-.002l1.01-1-.004-.003c.007-.006.015-.009.022-.015l5.166-5.658 3.471.494c.02.003.044.004.068.004.07 0 .137-.014.198-.039l-.004.001c.017-.006.033-.015.05-.023.019-.009.039-.015.057-.027l3.213-2.134c.012-.008.018-.02.029-.029.012-.01.029-.014.04-.025l1.272-1.192c.347-.326.564-.787.564-1.299 0-.4-.132-.77-.355-1.067l.003.005zM2.13 17.77a.714.714 0 0 1-.558.052c-.295-.093-.505-.364-.505-.683 0-.236.114-.445.29-.575l.002-.001 1.314-.632.316.925.133.388-.993.527zm3.498-1.827-1.548.8-.255-.747-.183-.537 2.026-1-.04 1.483zm15.099-6.621c0 .918-.219 1.785-.599 2.559l-4.181-1.899a1.8601 1.8601 0 0 0-.782-1.384l-.006-.004 1.464-4.86c2.378.755 4.105 2.974 4.105 5.587zm-11.789 0c0-3.235 2.644-5.867 5.894-5.867.253 0 .5.022.745.053l-1.432 4.753c-.019 0-.037-.005-.057-.005h-.001c-1.032 0-1.869.835-1.871 1.866.003 1.031.84 1.867 1.871 1.867h.001c.694 0 1.294-.383 1.618-.944l3.863 1.755c-1.075 1.447-2.795 2.39-4.736 2.39-3.25 0-5.895-2.633-5.895-5.867zm5.957.8c0 .441-.362.8-.806.8h-.002a.8038.8038 0 0 1-.804-.8c0-.441.361-.8.806-.8s.806.359.806.8zM2.465 25.146c-.11.108-.261.175-.428.175s-.317-.067-.427-.175c-.109-.108-.176-.257-.176-.422s.067-.315.176-.422l.962-.959.851.848-.958.955zm3.213 3.734c-.11.109-.261.176-.428.176s-.317-.067-.427-.175c-.109-.108-.176-.257-.176-.422s.067-.315.176-.422l.963-.959.852.848-.96.955zm3.483-3.469-.002.001-1.765 1.76-.851-.848 1.763-1.756s.001 0 .002-.001c.04-.04.065-.088.09-.135.007-.014.02-.026.026-.04.017-.041.019-.085.025-.129.004-.024.014-.047.014-.073 0-.035-.012-.07-.02-.105-.007-.032-.007-.065-.018-.096-.02-.05-.055-.095-.091-.137-.01-.012-.014-.027-.025-.038h-.001l-.001-.002-1.607-1.6c-.017-.017-.039-.024-.058-.038a.4912.4912 0 0 0-.084-.056l-.003-.001a.4772.4772 0 0 0-.09-.032l-.003-.001a.5019.5019 0 0 0-.101-.02h-.022c-.026 0-.052.002-.077.006h.003a.5905.5905 0 0 0-.108.021l.004-.001a.5024.5024 0 0 0-.096.046l.002-.001c-.02.011-.043.015-.061.029l-1.774 1.324-.901-.897 2.399-2.386 4.36 4.289-.927.919zm6.818-7.017c-.015-.002-.03.004-.045.003-.008 0-.017-.001-.026-.001-.031 0-.062.003-.092.008h.003a.5364.5364 0 0 0-.088.021.4469.4469 0 0 0-.098.048l.002-.001a.554.554 0 0 0-.083.061c-.013.011-.028.017-.04.029l-4.698 5.146-4.328-4.257 2.833-2.818a.5339.5339 0 0 0-.378-.911H8.94l-2.219.013.027-1.607 3.104.027c1.264 1.297 3.027 2.101 4.978 2.101h.003c.438 0 .864-.045 1.279-.122.04.032.079.064.13.085l2.41.96.331 1.643-3.003-.427zm4.041.179-.314-1.558 1.447-1.08.947 1.257-2.08 1.381zm3.754-2.831-.838.785-.931-1.236.831-.637c.155-.12.351-.168.543-.143.194.027.364.128.48.284.217.292.18.699-.085.947z" style="fill:var(--color1, #2e2f42)"/>
      <path fill="#2e2f42" d="m13.602 18.544-2.143-2.134c-.096-.096-.229-.155-.376-.155s-.28.059-.376.155l-2.143 2.134c-.097.097-.156.231-.156.378s.06.281.156.378l2.143 2.133c.096.096.229.155.376.155s.28-.059.376-.155l2.143-2.133c.097-.097.157-.23.157-.378s-.06-.282-.157-.378zm-2.519 1.759-1.386-1.381 1.386-1.381 1.387 1.381-1.387 1.381zm6.081-15.232-.258 1.035c.071.018 1.738.452 1.738 2.149h1.067c0-2.017-1.666-2.966-2.546-3.185zm2.547 4.251h-1.067v1.067h1.067V9.322z" style="fill:var(--color1, #2e2f42)"/>
    </symbol>
    <symbol id="icon-instagram-icon" viewBox="0 0 32 32">
      <path fill="#f4f4fd" d="M31.969 9.408c-.075-1.7-.35-2.869-.744-3.882-.406-1.075-1.031-2.038-1.85-2.838A7.8671 7.8671 0 0 0 26.543.844C25.524.45 24.361.175 22.661.1 20.948.019 20.404 0 16.06 0s-4.888.019-6.595.094c-1.7.075-2.869.35-3.882.744-1.075.406-2.038 1.031-2.838 1.85-.813.8-1.444 1.769-1.844 2.832C.507 6.539.232 7.702.157 9.402c-.081 1.713-.1 2.257-.1 6.601s.019 4.888.094 6.595c.075 1.7.35 2.869.744 3.882.406 1.075 1.038 2.038 1.85 2.838.8.813 1.769 1.444 2.832 1.844 1.019.394 2.182.669 3.882.744 1.706.075 2.25.094 6.595.094s4.888-.018 6.595-.094c1.7-.075 2.869-.35 3.882-.744a8.1814 8.1814 0 0 0 4.682-4.682c.394-1.019.669-2.182.744-3.882.075-1.707.094-2.251.094-6.595s-.006-4.888-.081-6.595zm-2.882 13.065c-.069 1.563-.331 2.407-.55 2.969-.538 1.394-1.644 2.501-3.038 3.038-.563.219-1.413.481-2.969.55-1.688.075-2.194.094-6.464.094s-4.782-.018-6.464-.094c-1.563-.069-2.407-.331-2.969-.55-.694-.256-1.325-.663-1.838-1.194-.531-.519-.938-1.144-1.194-1.838-.219-.563-.481-1.413-.55-2.969-.075-1.688-.094-2.194-.094-6.464s.019-4.782.094-6.464c.069-1.563.331-2.407.55-2.969.256-.694.663-1.325 1.2-1.838.519-.531 1.144-.938 1.838-1.194.563-.219 1.413-.481 2.969-.55 1.688-.075 2.194-.094 6.464-.094 4.276 0 4.782.019 6.464.094 1.563.069 2.407.331 2.969.55.694.256 1.325.662 1.838 1.194.531.519.938 1.144 1.194 1.838.219.563.481 1.413.55 2.969.075 1.688.094 2.194.094 6.464s-.019 4.77-.094 6.457z" style="fill:var(--color3, #f4f4fd)"/>
      <path fill="#f4f4fd" d="M16.059 7.782c-4.538 0-8.22 3.682-8.22 8.22s3.682 8.22 8.22 8.22 8.22-3.682 8.22-8.22-3.682-8.22-8.22-8.22zm0 13.553c-2.944 0-5.332-2.388-5.332-5.332s2.388-5.332 5.332-5.332 5.332 2.388 5.332 5.332-2.388 5.332-5.332 5.332zM26.524 7.457c0 1.06-.859 1.919-1.919 1.919s-1.919-.859-1.919-1.919.859-1.919 1.919-1.919 1.919.859 1.919 1.919z" style="fill:var(--color3, #f4f4fd)"/>
    </symbol>
    <symbol id="icon-twitter-icon" viewBox="0 0 32 32">
      <path fill="#f4f4fd" d="M32 6.078c-1.19.522-2.458.868-3.78 1.036 1.36-.812 2.398-2.088 2.886-3.626-1.268.756-2.668 1.29-4.16 1.588C25.742 3.794 24.026 3 22.154 3c-3.632 0-6.556 2.948-6.556 6.562 0 .52.044 1.02.152 1.496-5.454-.266-10.28-2.88-13.522-6.862-.566.982-.898 2.106-.898 3.316 0 2.272 1.17 4.286 2.914 5.452-1.054-.02-2.088-.326-2.964-.808v.072c0 3.188 2.274 5.836 5.256 6.446-.534.146-1.116.216-1.72.216-.42 0-.844-.024-1.242-.112.85 2.598 3.262 4.508 6.13 4.57-2.232 1.746-5.066 2.798-8.134 2.798-.538 0-1.054-.024-1.57-.09C2.906 27.93 6.35 29 10.064 29c12.072 0 18.672-10 18.672-18.668 0-.29-.01-.57-.024-.848C30.014 8.56 31.108 7.406 32 6.078z" style="fill:var(--color3, #f4f4fd)"/>
    </symbol>
    <symbol id="icon-facebook-icon" viewBox="0 0 32 32">
      <path fill="#f4f4fd" d="M21.329 5.313h2.921V.225C23.746.156 22.013 0 19.994 0c-4.212 0-7.097 2.649-7.097 7.519V12H8.249v5.688h4.648V32h5.699V17.689h4.46l.708-5.688h-5.169V8.082c.001-1.644.444-2.769 2.735-2.769z" style="fill:var(--color3, #f4f4fd)"/>
    </symbol>
    <symbol id="icon-linkedin-icon" viewBox="0 0 32 32">
      <path fill="#f4f4fd" d="M31.992 32v-.001H32V20.263c0-5.741-1.236-10.164-7.948-10.164-3.227 0-5.392 1.771-6.276 3.449h-.093v-2.913h-6.364v21.364h6.627V21.42c0-2.785.528-5.479 3.977-5.479 3.399 0 3.449 3.179 3.449 5.657v10.401h6.62zM.528 10.636h6.635V32H.528V10.636zM3.843 0C1.722 0 0 1.721 0 3.843s1.721 3.879 3.843 3.879c2.121 0 3.843-1.757 3.843-3.879C7.685 1.722 5.963 0 3.843 0z" style="fill:var(--color3, #f4f4fd)"/>
    </symbol>
    <symbol id="icon-cross-bar" viewBox="0 0 32 32">
      <path d="M32 3.223 28.777 0 16 12.777 3.223 0 0 3.223 12.777 16 0 28.777 3.223 32 16 19.223 28.777 32 32 28.777 19.223 16 32 3.223z"/>
    </symbol>
    <symbol id="icon-customers-logo-1" viewBox="0 0 59 32">
      <path d="m21.714 4 4.005 3.815-7.433-.003v18.509h19.429v-7.077l4 3.811V4.001h-20zm15.824 14.795L26.184 7.978h11.354v10.817zm-3.525 4.818H21.36V11.165h.894v11.606h11.759v.843zm-10.13 6.137-.471-.97h-.389l.683 1.283v.748h.353v-.748l.684-1.283h-.388l-.471.97zm1.739-.971h.083l.767 2.031h-.368l-.165-.475h-.786l-.164.475h-.367l.765-2.031h.234zm-.373 1.279h.595l-.297-.862-.297.862zm2.455-.337c-.006-.007-.02-.025-.035-.044l-.009-.013a1.0407 1.0407 0 0 1-.119-.193l-.003-.006a.4852.4852 0 0 1-.043-.201c0-.106.022-.197.065-.273s.107-.136.183-.175l.003-.001c.08-.042.174-.063.28-.063.103 0 .193.021.267.063.141.075.236.22.236.388 0 .063-.013.123-.037.177l.001-.003a.5114.5114 0 0 1-.097.145c-.043.045-.089.086-.139.123l-.003.002-.141.103.402.474a.7965.7965 0 0 0 .088-.365v-.015.001h.29c0 .099-.01.192-.029.28a.873.873 0 0 1-.15.338l.002-.002.297.351h-.389l-.118-.139a.7857.7857 0 0 1-.203.113l-.005.002a.9211.9211 0 0 1-.308.053h-.008c-.135 0-.251-.025-.35-.074a.554.554 0 0 1-.227-.201l-.001-.002a.5527.5527 0 0 1-.08-.288v-.01c0-.083.017-.155.051-.217a.7224.7224 0 0 1 .141-.177c.055-.05.118-.099.189-.149zm.167.204-.042.03a.5115.5115 0 0 0-.109.114l-.001.002a.3339.3339 0 0 0-.057.188c0 .057.014.11.039.157l-.001-.002a.295.295 0 0 0 .112.115l.001.001c.05.027.109.042.172.042h.011-.001c.077 0 .152-.017.225-.051.039-.02.073-.041.104-.066l-.001.001-.451-.531zm.08-.371.125-.083c.05-.031.091-.069.125-.113l.001-.001a.2492.2492 0 0 0 .038-.133v-.01a.2029.2029 0 0 0-.202-.196h-.012.001-.006c-.083 0-.154.049-.187.119l-.001.001a.2883.2883 0 0 0-.024.115c0 .049.012.095.034.135l-.001-.002c.021.044.05.09.088.138l.023.03zm3.554.596h-.349a.635.635 0 0 1-.066.228l.002-.004c-.032.06-.08.108-.139.137l-.002.001c-.064.03-.14.048-.22.048h-.022.001-.012a.4285.4285 0 0 1-.202-.05l.002.001a.4032.4032 0 0 1-.144-.137l-.001-.002a.6772.6772 0 0 1-.083-.209l-.001-.004a1.3222 1.3222 0 0 1-.027-.268v-.011.001-.171c0-.109.01-.204.029-.288.021-.085.051-.155.091-.213.038-.056.088-.1.146-.13l.002-.001a.4573.4573 0 0 1 .198-.045h.012-.001c.097 0 .177.017.237.05s.106.08.137.143c.031.062.052.137.061.224h.349a.8584.8584 0 0 0-.117-.365l.002.004a.6482.6482 0 0 0-.256-.245l-.003-.002a.8489.8489 0 0 0-.384-.09h-.027.001c-.127 0-.242.023-.345.067s-.189.109-.261.194a.871.871 0 0 0-.166.296l-.002.006c-.038.118-.057.25-.057.396v.169c0 .146.019.278.056.396s.093.219.165.303a.745.745 0 0 0 .258.193c.101.045.214.067.339.067.163 0 .303-.03.417-.089s.203-.141.266-.245c.063-.104.101-.223.111-.355zm1.937-.299v-.111c0-.153-.02-.291-.061-.411a.9064.9064 0 0 0-.172-.313l.001.001a.7407.7407 0 0 0-.262-.195l-.005-.002c-.103-.046-.217-.069-.343-.069-.125 0-.239.023-.342.069a.7458.7458 0 0 0-.267.197c-.074.086-.131.19-.173.311-.039.117-.062.253-.062.393v.019-.001.111c0 .154.021.291.062.413.04.12.1.223.176.312l-.001-.001c.075.086.165.151.266.197.103.045.217.067.342.067s.24-.023.343-.067a.7363.7363 0 0 0 .265-.197c.074-.086.131-.189.171-.311s.06-.259.06-.413zm-.349-.114v.114c0 .114-.011.214-.034.302a.6638.6638 0 0 1-.096.224l.002-.002a.4132.4132 0 0 1-.151.134l-.002.001a.4618.4618 0 0 1-.199.045h-.019a.453.453 0 0 1-.201-.046l.003.001a.4475.4475 0 0 1-.155-.134l-.001-.001a.658.658 0 0 1-.097-.217l-.001-.005a1.168 1.168 0 0 1-.034-.286v-.017.001-.114c0-.113.011-.213.034-.3s.054-.16.096-.219c.04-.056.092-.102.153-.133l.002-.001a.4451.4451 0 0 1 .199-.046h.008c.077 0 .146.015.208.046s.113.074.154.134c.043.058.075.131.097.219.023.087.034.187.034.3z"/>
    </symbol>
    <symbol id="icon-customers-logo-2" viewBox="0 0 59 32">
      <path d="M28.637 3.391h-.078c-.12-.007-.24-.01-.36-.013h-.26c-.227 0-.458.006-.688.017-.008-.001-.017-.001-.026-.001s-.018 0-.027.001h.001c-2.206.129-4.255.68-6.106 1.575l.096-.042-.247.119V17.7l.578-.197c.507-.174 1.048-.331 1.607-.477 1.382-.37 2.973-.592 4.612-.614h.013v1.662c-.207.001-.407.007-.609.017h-.048c-1.299.073-2.516.268-3.688.575l.129-.029c-1.61.409-3.021.975-4.333 1.7l.093-.047V4.063c1.281-.761 2.762-1.382 4.331-1.784l.118-.026c1.256-.338 2.7-.535 4.189-.541h.247c.292.007.577.021.845.041.705.05 1.403.161 2.089.333v1.636c-.583-.143-1.274-.251-1.981-.303l-.042-.002-.042-.003c-.141-.012-.282-.024-.414-.024zm2.879 1.672c.363.028.739.041 1.119.041 1.569-.006 3.086-.212 4.533-.594l-.125.028c1.61-.411 3.02-.977 4.331-1.7l-.094.047v15.937c-1.281.761-2.762 1.381-4.331 1.783l-.118.026c-1.257.337-2.7.533-4.189.539h-.107c-1.093 0-2.153-.137-3.166-.394l.089.019V4.754c.246.057.499.109.756.153.422.071.867.123 1.301.155zm8.111.124-.578.194c-.531.179-1.069.339-1.607.481-1.44.385-3.094.61-4.8.616h-.004c-.377 0-.724-.01-1.059-.032l-.461-.03v13.015l.396.034c.367.033.746.049 1.127.049 1.347-.006 2.649-.184 3.89-.514l-.107.024c1.134-.288 2.118-.652 3.051-1.104l-.094.041.247-.119V5.186zM20.421 25.835a.8493.8493 0 0 0-.613-.261c-.011 0-.021 0-.032.001h.002-.013c-.129 0-.252.026-.365.072l.006-.002c-.22.088-.39.26-.473.475l-.002.006a.9186.9186 0 0 0-.066.359v2.168c-.006.153.024.305.085.445.051.111.125.21.217.291.086.073.188.126.297.154.106.029.215.045.324.045.121.001.24-.025.35-.075.325-.145.548-.465.549-.837v-.242h-.567V28.64a.481.481 0 0 1-.035.183l.001-.003a.3367.3367 0 0 1-.082.122.4022.4022 0 0 1-.237.083.2855.2855 0 0 1-.265-.116l-.001-.001a.5036.5036 0 0 1-.076-.269v-.023.001-2.022a.699.699 0 0 1 .07-.324.291.291 0 0 1 .244-.133c.012 0 .023.001.035.002h-.001.011c.099 0 .187.048.242.122l.001.001c.059.076.094.173.094.279v.013-.001.187h.561v-.231c0-.133-.025-.26-.072-.377l.002.007a.8943.8943 0 0 0-.19-.306zm3.367-.024a1.0048 1.0048 0 0 0-.644-.239.976.976 0 0 0-.338.061.897.897 0 0 0-.517.475l-.002.006c-.057.132-.086.275-.083.42v2.079c-.004.146.025.291.083.426.051.112.126.211.219.291.087.08.189.143.299.183.109.04.223.061.338.061a.9775.9775 0 0 0 .646-.245l-.001.001c.09-.081.163-.18.214-.291.058-.134.086-.279.083-.426v-2.097c0-.145-.031-.283-.086-.408l.003.006a.951.951 0 0 0-.213-.304zm-.265 2.803c.001.01.001.021.001.032 0 .106-.044.201-.114.269-.072.06-.165.097-.267.097s-.195-.037-.267-.098h.001a.373.373 0 0 1-.114-.268c0-.012.001-.023.002-.035v.001-2.079c-.001-.01-.001-.021-.001-.032 0-.105.044-.201.114-.268.072-.06.165-.097.267-.097s.195.037.267.098h-.001c.07.068.114.163.114.268 0 .011 0 .023-.002.034v-.001 2.08zm4.687.929v-3.937h-.545l-.716 2.084h-.01l-.722-2.083h-.539v3.936h.562v-2.394h.01l.55 1.693h.281l.555-1.693h.01v2.394h.562zm3.195-3.661a.7786.7786 0 0 0-.318-.215c-.115-.039-.248-.061-.386-.061h-.023.001-.835v3.937h.561v-1.538h.289c.175.008.349-.029.506-.107a.8234.8234 0 0 0 .306-.297l.002-.004a.9396.9396 0 0 0 .129-.343c.019-.124.03-.267.03-.412v-.037.002c.006-.189-.013-.378-.055-.562-.04-.142-.111-.264-.207-.362zm-.29 1.2a.5.5 0 0 1-.053.208l.001-.003a.316.316 0 0 1-.143.137l-.002.001c-.069.032-.15.05-.235.05-.01 0-.02 0-.03-.001h.001-.256v-1.338h.289c.008 0 .017-.001.027-.001a.53.53 0 0 1 .229.051l-.003-.001c.058.034.103.083.131.143l.001.002c.031.069.047.144.049.219v.262c0 .091.006.186 0 .27h-.006zm2.947-1.476h-.46l-.867 3.937h.561l.165-.846h.765l.165.846h.561l-.889-3.937zm-.518 2.555.276-1.427h.01l.274 1.427h-.561zm4.142-.184h-.01l-.847-2.371h-.539v3.937h.561v-2.367h.011l.857 2.367h.528v-3.936h-.561v2.371zm3.427-2.371-.451 1.566h-.011l-.451-1.566h-.593l.77 2.273v1.663h.561v-1.663l.77-2.273h-.594zm-22.256 5.048h.27v.758h.183v-.759h.269v-.155h-.722v.156zm2.273-.156-.354.914h.195l.075-.208h.365l.078.208h.2l-.363-.914h-.195zm-.029.553.124-.339.124.339H21.1zm2.275.024h.211v.118a.3437.3437 0 0 1-.217.077h-.013a.231.231 0 0 1-.181-.087.3761.3761 0 0 1-.068-.218c0-.007 0-.014.001-.021v.001c0-.203.088-.305.263-.305.006-.001.013-.001.02-.001.09 0 .166.062.187.145v.001l.181-.035c-.039-.178-.167-.269-.387-.269h-.012c-.118 0-.226.045-.308.118a.4442.4442 0 0 0-.133.317c0 .012 0 .024.001.036v-.002.021c0 .123.044.235.118.322l-.001-.001c.081.083.194.135.319.135.01 0 .02 0 .029-.001h-.001.015c.144 0 .275-.055.373-.146v-.36h-.396v.154zm2.294-.577h-.185v.914h.64v-.155h-.455v-.759zm1.94 0h-.185v.914h.185v-.914zm1.896.611-.374-.61h-.179v.914h.171v-.597l.367.597h.184v-.914h-.17v.611zm1.715-.099h.455v-.155h-.455v-.2h.49v-.156h-.675v.914h.694v-.155h-.509v-.247zm4.157-.151h-.36v-.36h-.183v.914h.183v-.4h.36v.4h.184v-.914h-.184v.361zm1.725.151h.457v-.155h-.457v-.2h.491v-.156h-.674v.914h.693v-.155h-.509v-.247zm2.339 0c.159-.025.24-.109.24-.254a.2112.2112 0 0 0 .002-.026c0-.073-.036-.138-.091-.177h-.001a.5057.5057 0 0 0-.232-.055c-.013 0-.025 0-.037.001h.002-.387v.914h.184v-.382h.051c.036 0 .07.008.101.022l-.002-.001c.027.017.049.039.065.067l.199.29h.219l-.111-.178a.6352.6352 0 0 0-.2-.218l-.002-.001zm-.185-.127h-.135v-.229h.145a.4612.4612 0 0 1 .039-.002c.053 0 .104.009.151.024l-.003-.001c.025.022.04.054.04.089 0 .039-.019.074-.048.096a.496.496 0 0 1-.153.023c-.012 0-.024 0-.036-.001h.002zm1.949.127h.455v-.155h-.455v-.2h.491v-.156h-.677v.914h.694v-.155h-.509v-.247z"/>
    </symbol>
    <symbol id="icon-customers-logo-3" viewBox="0 0 59 32">
      <path d="M21.034 28.127c.009 0 .018.002.026.006s.016.008.023.013l.126.119c-.099.096-.216.172-.347.223l-.007.002c-.16.057-.331.085-.503.081h-.026c-.16 0-.314-.028-.457-.079l.009.003a1.0569 1.0569 0 0 1-.357-.213l.001.001a.958.958 0 0 1-.228-.323l-.002-.006a1.0629 1.0629 0 0 1-.081-.41v-.013.001-.014c0-.148.032-.289.09-.416l-.003.006a.9804.9804 0 0 1 .245-.329c.107-.092.233-.165.37-.212l.008-.002c.141-.048.303-.076.471-.076h.017-.001c.154-.003.309.021.453.069.125.047.24.111.339.19l-.106.127a.1131.1131 0 0 1-.026.023.0757.0757 0 0 1-.037.01h-.006a.0994.0994 0 0 1-.046-.014l-.057-.034-.078-.043a.8808.8808 0 0 0-.244-.075l-.005-.001a1.146 1.146 0 0 0-.172-.013h-.017.001-.012c-.121 0-.237.021-.345.059l.007-.002a.816.816 0 0 0-.275.16l.001-.001a.733.733 0 0 0-.178.254.8238.8238 0 0 0-.065.323v.012-.001.013c0 .118.024.23.067.332l-.002-.006c.081.193.238.34.432.407l.005.002c.103.037.213.055.325.054.065.001.129-.003.193-.011.16-.016.303-.079.418-.175l-.001.001a.102.102 0 0 1 .06-.022zm3.644-.596c.002.143-.027.286-.085.419a.9055.9055 0 0 1-.237.325l-.001.001c-.105.093-.232.166-.373.213-.143.048-.308.075-.479.075s-.336-.028-.49-.079l.011.003a1.136 1.136 0 0 1-.373-.215l.001.001a.946.946 0 0 1-.237-.323l-.002-.006c-.054-.124-.085-.268-.085-.42s.031-.296.088-.427l-.003.007a.992.992 0 0 1 .24-.33c.106-.09.232-.16.371-.206.309-.103.65-.103.959 0 .14.049.267.121.372.214.199.178.324.435.324.721v.026-.001zm-.332 0a.8686.8686 0 0 0-.059-.337c-.077-.196-.234-.345-.431-.409l-.005-.001c-.104-.035-.224-.055-.349-.055s-.244.02-.357.058l.008-.002a.7325.7325 0 0 0-.267.16.6848.6848 0 0 0-.169.247l-.002.005c-.08.22-.08.455 0 .674.035.093.094.179.17.252.074.069.166.123.267.158.225.072.472.072.697 0 .101-.035.193-.089.266-.158a.7.7 0 0 0 .169-.252.8536.8536 0 0 0 .059-.337zm2.817.354.033.075c.013-.027.024-.051.037-.075.012-.026.026-.05.041-.074l.806-1.251c.016-.022.03-.035.046-.04s.035-.007.054-.007h.013-.001.238v2.036h-.282v-1.56c-.001-.011-.001-.023-.001-.035s0-.025.001-.037v.002l-.811 1.269a.1098.1098 0 0 1-.047.046h-.001a.14.14 0 0 1-.068.017h-.049a.1367.1367 0 0 1-.069-.018h.001a.1198.1198 0 0 1-.047-.045v-.001l-.834-1.278v1.634h-.273v-2.032h.248c.02 0 .039.003.057.007h-.002c.019.008.035.021.044.038l.823 1.253c.017.023.03.048.041.073zm3.034-.101v.762h-.315v-2.033h.703a1.52 1.52 0 0 1 .393.045c.102.025.197.067.278.126.067.052.121.12.156.197l.001.003c.037.083.055.171.054.26v.009c0 .185-.089.35-.227.453l-.001.001a.8144.8144 0 0 1-.274.134l-.006.001c-.122.033-.251.049-.379.047l-.382-.006zm0-.218h.382c.083.001.166-.01.245-.031a.5392.5392 0 0 0 .178-.088l-.001.001a.3828.3828 0 0 0 .145-.301v-.005c0-.006.001-.013.001-.021 0-.053-.012-.103-.034-.147l.001.002a.3938.3938 0 0 0-.11-.138l-.001-.001a.6772.6772 0 0 0-.426-.109h.002-.382v.838zm4.24.983h-.253a.1207.1207 0 0 1-.065-.019.139.139 0 0 1-.041-.046v-.001l-.214-.492h-1.078l-.222.491a.1068.1068 0 0 1-.039.045.1184.1184 0 0 1-.067.021h-.253l.946-2.036h.328l.959 2.036zm-1.562-.756h.89l-.375-.829c-.025-.053-.05-.116-.069-.182l-.002-.009-.036.106a.8582.8582 0 0 1-.034.086l-.373.829zm2.925-1.271c.019.009.034.021.047.036l1.381 1.535v-1.581h.282v2.036h-.164a.153.153 0 0 1-.06-.012h.001a.174.174 0 0 1-.05-.038l-1.378-1.534c.001.011.001.023.001.035s0 .025-.001.037v-.002 1.513h-.282v-2.036h.167c.019-.001.039.002.057.009zm4.034 1.217v.809h-.315v-.809l-.872-1.226h.289c.023 0 .044.006.061.018.017.013.031.029.042.046l.546.791c.037.052.07.112.094.175l.002.005.041-.087a.7245.7245 0 0 1 .054-.093l.538-.797a.1866.1866 0 0 1 .041-.043c.017-.013.039-.02.062-.02h.291l-.874 1.232zm-12.827-4.644c.137.015.276.027.417.038 2.129-.813 3.929-2.145 5.177-3.828s1.887-3.642 1.838-5.634l-2.345-2.004c.477 2.121.254 4.313-.645 6.331-.898 2.018-2.436 3.783-4.441 5.097z"/>
      <path d="m26.17 23.002.063.011c2.143-1.31 3.777-3.138 4.69-5.25s1.065-4.408.433-6.594l-3.341-2.854c1.351 2.346 1.895 4.972 1.569 7.571s-1.511 5.067-3.414 7.115zm11.33-6.978c-.567 2.189-1.946 4.162-3.931 5.629-.541.405-1.152.786-1.796 1.112l-.071.033c1.616-.406 3.102-1.123 4.342-2.097s2.202-2.178 2.811-3.52l-1.354-1.157z"/>
      <path d="m36.969 15.702-1.929-1.648c-.037 1.879-.662 3.715-1.811 5.318s-2.779 2.914-4.721 3.796h.01c.433 0 .865-.022 1.295-.066 1.815-.633 3.419-1.64 4.667-2.931s2.104-2.827 2.489-4.469zm-10.52-8.59-2.301-1.969c-2.057.679-3.827 1.873-5.077 3.426s-1.922 3.392-1.929 5.277c.008 2.082.828 4.103 2.331 5.742s3.603 2.803 5.967 3.308c2.111-2.198 3.347-4.913 3.528-7.751s-.702-5.651-2.52-8.032zm15.837 8.287c-.009-2.47-1.161-4.838-3.206-6.585-2.044-1.747-4.815-2.731-7.706-2.739h-.025c-1.388 0-2.723.227-3.97.647l.088-.026 14.091 12.039c.459-.98.727-2.127.729-3.337v-.001z"/>
    </symbol>
    <symbol id="icon-customers-logo-4" viewBox="0 0 59 32">
      <path d="M13.759 12.296h-.002c-1.363 0-2.469.997-2.469 2.225v.002c0 1.229 1.106 2.225 2.469 2.225h.002c1.363 0 2.469-.996 2.469-2.225v-.002c0-1.229-1.105-2.225-2.469-2.225zm18.219-.711c-.003-1.707-.757-3.343-2.096-4.551-1.339-1.207-3.153-1.887-5.047-1.891-1.894.003-3.709.683-5.049 1.89s-2.094 2.844-2.098 4.551v9.414s14.288-1.434 14.289-9.412v-.002zM6.286 24.088c.003 1.188.528 2.326 1.459 3.166s2.194 1.314 3.511 1.317c1.317-.003 2.579-.477 3.511-1.317s1.456-1.977 1.46-3.166v-6.549s-9.942.998-9.942 6.548zm4.971 1.174c-.257 0-.509-.069-.723-.198a1.2182 1.2182 0 0 1-.476-.52l-.003-.007c-.063-.132-.099-.286-.099-.449 0-.081.009-.16.026-.236l-.001.007c.056-.241.182-.446.355-.6l.001-.001c.181-.161.408-.275.659-.32l.008-.001c.253-.046.514-.022.752.067s.441.239.584.432c.143.193.219.42.219.652.001.154-.033.308-.098.451s-.161.273-.282.382c-.119.107-.26.194-.414.252l-.009.003c-.148.057-.319.09-.498.09h-.002v-.005zm9.091-2.111v2.438h-.502v-2.438h.502zm.971 1.042v.392H20.21v-.392h1.109zm.117-1.042v.393h-1.225v-.393h1.225zm2.294 1.162v.115c0 .186-.025.352-.075.499-.048.146-.121.271-.214.379l.001-.001a.9185.9185 0 0 1-.328.236c-.12.052-.259.082-.405.082h-.016.001c-.153 0-.293-.027-.42-.082a.9514.9514 0 0 1-.327-.235l-.001-.001a1.1062 1.1062 0 0 1-.214-.369l-.002-.008c-.048-.142-.076-.306-.076-.477v-.023.001-.115c0-.186.025-.353.075-.499.048-.145.121-.271.214-.378l-.001.001a.9383.9383 0 0 1 .328-.238c.127-.055.267-.082.421-.082.154 0 .294.027.42.082.127.055.237.134.328.238.093.104.164.229.214.377.051.146.077.312.077.498zm-.508.116v-.119c0-.129-.011-.243-.035-.341a.743.743 0 0 0-.106-.251l.002.003a.4478.4478 0 0 0-.165-.15l-.002-.001a.4782.4782 0 0 0-.216-.052h-.01c-.085 0-.16.017-.226.051a.4655.4655 0 0 0-.165.149l-.001.002a.7521.7521 0 0 0-.101.243l-.001.005c-.022.096-.035.206-.035.32v.022-.001.119c0 .129.011.242.035.342.023.098.058.181.104.25.046.067.102.118.167.152s.141.052.226.052c.085 0 .16-.017.226-.051a.4527.4527 0 0 0 .165-.151l.001-.002c.045-.069.079-.151.102-.25.022-.097.035-.207.035-.321v-.022.001zm2.138.522v-.005a.308.308 0 0 0-.021-.114l.001.002a.2293.2293 0 0 0-.07-.097.6356.6356 0 0 0-.142-.087l-.004-.002c-.065-.03-.146-.061-.228-.086l-.015-.004a3.0479 3.0479 0 0 1-.334-.128l.019.008c-.1-.045-.186-.097-.264-.158l.003.002a.691.691 0 0 1-.175-.206l-.002-.004a.5752.5752 0 0 1-.064-.264v-.012.001-.008c0-.098.025-.191.068-.271l-.002.003a.6369.6369 0 0 1 .187-.214c.08-.061.175-.107.285-.139.111-.032.231-.049.363-.049.179 0 .337.033.47.097s.238.154.311.266c.074.113.112.242.112.387h-.499v-.009a.38.38 0 0 0-.046-.181l.001.002a.3075.3075 0 0 0-.132-.128l-.002-.001a.4668.4668 0 0 0-.207-.047h-.019.001-.017c-.072 0-.141.015-.204.042l.003-.001a.2953.2953 0 0 0-.131.105l-.001.001c-.027.04-.043.09-.043.143v.005c0 .041.01.079.03.112a.343.343 0 0 0 .093.093l.001.001c.041.029.091.057.152.082s.13.051.209.075c.133.04.25.085.35.135s.186.106.254.169c.069.063.119.133.154.213s.051.169.051.27v.023c0 .194-.095.366-.24.473l-.002.001c-.078.058-.171.102-.279.132s-.229.046-.363.046c-.12 0-.239-.016-.357-.047a1.0667 1.0667 0 0 1-.324-.148l.004.002a.7424.7424 0 0 1-.226-.244l-.002-.004c-.057-.101-.085-.219-.085-.357h.504c0 .076.011.14.035.193.023.051.056.094.098.126l.001.001c.044.032.095.056.151.07l.003.001c.06.015.126.022.197.022h.019c.07 0 .138-.014.199-.038l-.004.001c.099-.04.167-.135.167-.246v-.004zm1.934-1.8v2.438h-.501v-2.438h.501zm.75 0v.393h-1.989v-.393h1.989zm1.922 2.046v.392h-1.297v-.392h1.297zm-1.133-2.046v2.438h-.503v-2.438h.503zm.964.993v.382h-1.129v-.382h1.129zm.167-.993v.393h-1.296v-.393h1.296zm.295 0h.909c.187 0 .347.028.481.083.135.056.239.139.311.248s.109.244.109.403c0 .131-.022.243-.067.337a.6475.6475 0 0 1-.184.232l-.001.001a.9647.9647 0 0 1-.273.145l-.007.002-.159.084h-.79l-.003-.392h.604c.074 0 .144-.017.206-.048l-.003.001c.056-.03.101-.075.13-.129l.001-.002a.3923.3923 0 0 0 .045-.185V23.91c0-.07-.016-.135-.045-.194l.001.003a.2941.2941 0 0 0-.131-.13l-.002-.001a.4837.4837 0 0 0-.207-.046h-.017.001-.407v2.045h-.502v-2.438zm1.362 2.438-.555-1.087.53-.003.563 1.067v.023h-.537zm2.637-.868h-.621v-.392h.641c.078 0 .151-.017.217-.049l-.003.001c.057-.03.103-.076.131-.133l.001-.002c.026-.058.041-.126.041-.197s-.015-.139-.043-.201l.001.003a.342.342 0 0 0-.131-.15l-.001-.001a.4327.4327 0 0 0-.216-.058h-.019.001-.447v2.045h-.502v-2.438h.949c.191 0 .354.034.491.104.137.068.242.162.314.283s.109.258.109.413c0 .158-.036.294-.109.409s-.177.204-.314.266c-.137.063-.3.094-.491.094zm2.896.476v.392h-1.297v-.392h1.297zm-1.133-2.046v2.438h-.503v-2.438h.503zm.964.993v.382h-1.128v-.382h1.129zm.168-.993v.393h-1.295v-.393h1.295zm1.418 0v2.438h-.501v-2.438h.501zm.75 0v.393h-1.989v-.393h1.989zm1.921 2.046v.392h-1.297v-.392h1.297zm-1.133-2.046v2.438h-.502v-2.438h.502zm.964.993v.382h-1.128v-.382h1.128zm.168-.993v.393h-1.295v-.393h1.295zm.294 0h.909c.187 0 .347.028.481.083s.239.139.311.248c.072.109.109.244.109.403 0 .131-.023.243-.067.337s-.107.171-.184.232l-.001.001a.9647.9647 0 0 1-.273.145l-.007.002-.159.084h-.79l-.003-.392h.604c.074 0 .144-.017.206-.048l-.003.001c.056-.03.101-.075.13-.129l.001-.002a.394.394 0 0 0 .046-.186V23.912a.44.44 0 0 0-.045-.195l.001.003a.297.297 0 0 0-.13-.13l-.002-.001a.4837.4837 0 0 0-.207-.046h-.017.001-.407v2.045h-.502V23.15zm1.363 2.438-.556-1.087.531-.003.562 1.067v.023h-.537zm2.103-.638v-.004a.341.341 0 0 0-.021-.116l.001.002a.2293.2293 0 0 0-.07-.097.6356.6356 0 0 0-.142-.087l-.004-.002c-.065-.03-.145-.061-.228-.086l-.015-.004a2.8985 2.8985 0 0 1-.334-.128l.019.008a1.291 1.291 0 0 1-.264-.158l.003.002a.691.691 0 0 1-.175-.206l-.002-.004a.5752.5752 0 0 1-.064-.264v-.012.001-.008c0-.098.025-.191.068-.271l-.002.003a.6369.6369 0 0 1 .187-.214c.08-.061.175-.107.285-.139.111-.032.231-.049.363-.049.179 0 .337.033.47.097s.238.154.311.266c.075.113.112.242.112.387H45v-.009a.38.38 0 0 0-.046-.181l.001.002a.3075.3075 0 0 0-.132-.128l-.002-.001a.4668.4668 0 0 0-.207-.047h-.019.001-.017c-.072 0-.141.015-.204.042l.003-.001a.2872.2872 0 0 0-.13.105l-.001.001c-.027.04-.043.09-.043.144v.004c0 .041.01.079.03.112a.343.343 0 0 0 .093.093l.001.001c.041.029.091.057.152.082s.13.051.209.075c.133.04.25.085.35.135s.186.106.254.169c.069.063.119.133.154.213s.051.169.051.27v.023c0 .194-.094.366-.24.473l-.002.001c-.078.058-.171.102-.279.132s-.229.046-.363.046c-.121 0-.24-.016-.357-.047a1.0667 1.0667 0 0 1-.324-.148l.004.002a.732.732 0 0 1-.226-.244l-.002-.004c-.057-.101-.085-.219-.085-.357h.504c0 .076.011.14.035.193.023.051.056.094.098.126l.001.001c.044.032.095.056.151.07l.003.001c.06.015.126.022.198.022h.018c.07 0 .138-.014.199-.038l-.004.001c.099-.04.167-.135.167-.246v-.004z"/>
    </symbol>
    <symbol id="icon-customers-logo-5" viewBox="0 0 59 32">
      <path d="M15.31 25.356c.14.157.215.352.211.553.007.131-.019.262-.075.383s-.143.229-.252.315c-.239.162-.534.258-.851.258-.035 0-.07-.001-.105-.004h.005-1.671v-3.504h1.637a1.5104 1.5104 0 0 1 .913.236l-.006-.004c.106.08.19.181.245.294s.08.238.073.362c.01.193-.058.383-.19.535-.129.138-.3.236-.493.273l-.006.001c.222.037.422.143.565.299zm-1.961-.529h.7c.159.011.317-.03.445-.116a.4149.4149 0 0 0 .119-.153l.001-.003a.3756.3756 0 0 0 .03-.189v.002c.001-.009.001-.019.001-.029 0-.056-.012-.11-.034-.159l.001.003a.4313.4313 0 0 0-.116-.156h-.001a.7257.7257 0 0 0-.401-.12c-.02 0-.04.001-.06.002h.003-.689v.919zm1.213 1.344a.4365.4365 0 0 0 .128-.158l.001-.003a.3837.3837 0 0 0 .037-.168c0-.01 0-.019-.001-.028v.001c.001-.007.001-.016.001-.025 0-.063-.014-.122-.04-.175l.001.002a.458.458 0 0 0-.13-.161l-.001-.001a.7769.7769 0 0 0-.429-.128c-.016 0-.033 0-.049.002h.002-.734v.964h.743c.167.009.333-.034.47-.122zm4.095.692-.911-1.37h-.343v1.369h-.783v-3.504h1.483c.032-.002.069-.004.107-.004.348 0 .669.113.93.304l-.004-.003c.207.19.333.441.353.707s-.066.529-.242.743c-.183.189-.433.315-.707.357l.97 1.4h-.851zm-1.254-1.848h.641c.445 0 .667-.177.667-.531.001-.009.001-.019.001-.029a.488.488 0 0 0-.038-.187l.001.003a.5108.5108 0 0 0-.127-.181.7413.7413 0 0 0-.506-.141h.003-.649l.008 1.066zm5.536 1.142h-1.562l-.275.705h-.822l1.434-3.465h.888l1.428 3.465h-.822l-.27-.705zm-.21-.53-.57-1.479-.57 1.479h1.141zm5.57 1.236h-.777l-1.744-2.383v2.383h-.776v-3.505h.776l1.743 2.397v-2.397h.778v3.504zm4.438-.84c-.169.27-.409.482-.693.614l-.01.004c-.338.154-.714.23-1.093.221h-1.385v-3.504h1.385c.019-.001.042-.001.064-.001.372 0 .726.08 1.045.223l-.016-.006c.298.135.543.349.703.611.16.285.243.6.243.919-.001.338-.091.655-.248.928l.005-.009zm-.89-.083c.211-.216.341-.511.344-.836-.003-.326-.133-.62-.344-.836-.242-.188-.55-.301-.884-.301-.031 0-.063.001-.094.003h.004-.54v2.269h.54a1.4428 1.4428 0 0 0 .977-.3l-.003.002zM23.426 3.867s10.038 3.411 9.825 8.349v8.351s-10.031-3.414-9.822-8.351l-.003-8.349zm18.768 14.744c1.895-1.175 4.089-1.903 6.378-2.116v-2.614c-2.638.915-4.875 2.574-6.378 4.73z"/>
      <path d="M41.055 19.399c1.551-2.813 4.242-4.983 7.517-6.065V5.801s-14.296 4.86-13.994 11.891v11.889s.637-.217 1.639-.625c0-.38 0-.763.046-1.149.295-3.264 2.019-6.289 4.792-8.409z"/>
      <path d="M39.695 23.815c.075-.825.243-1.64.501-2.434-1.727 1.831-2.772 4.103-2.99 6.497-.021.226-.032.451-.038.685 1.198-.515 2.101-.951 2.987-1.418l-.237.114c-.171-.73-.269-1.569-.269-2.43 0-.357.017-.709.05-1.057l-.003.044zm.568.043c-.028.289-.044.624-.044.963 0 .763.08 1.506.233 2.223l-.012-.07c3.906-2.104 8.294-5.354 8.125-9.283v-.343c-2.79.282-5.401 1.38-7.431 3.126-.448.989-.757 2.136-.868 3.341l-.003.042z"/>
    </symbol>
    <symbol id="icon-customers-logo-6" viewBox="0 0 59 32">
      <path d="M30.589 15.682c-.219-.282-.35-.64-.35-1.029 0-.038.001-.076.004-.114v.005-1.65c0-.506.115-.89.345-1.153s.624-.394 1.183-.393c.526 0 .898.112 1.119.336.24.286.357.635.33.987v.389h-.939v-.393c.003-.129-.006-.257-.027-.385a.3725.3725 0 0 0-.133-.228l-.001-.001a.5414.5414 0 0 0-.343-.088h.002c-.012-.001-.027-.001-.041-.001-.118 0-.228.036-.319.097l.002-.001a.4427.4427 0 0 0-.155.248l-.001.003c-.024.113-.037.243-.037.376v.034-.002 2.003a1.0221 1.0221 0 0 0 .123.567l-.003-.005c.049.06.112.107.184.136l.003.001c.076.029.16.04.243.031.12.009.24-.024.333-.091.072-.06.123-.145.14-.241v-.002c.022-.133.032-.267.029-.401v-.406h.94v.371c.002.029.003.063.003.097 0 .357-.124.685-.331.943l.002-.003c-.216.245-.584.367-1.125.367s-.949-.131-1.181-.403zm3.912.017c-.237-.257-.356-.631-.356-1.127v-1.736c0-.49.119-.861.356-1.113s.634-.377 1.191-.376c.553 0 .947.126 1.185.376.238.252.358.623.358 1.113v1.736c0 .49-.121.866-.362 1.125s-.634.387-1.181.387-.951-.131-1.191-.386zm1.628-.417c.085-.161.124-.337.113-.514v-2.126a.9447.9447 0 0 0 .002-.056c0-.164-.042-.318-.115-.452l.002.005a.452.452 0 0 0-.188-.138L35.94 12a.5191.5191 0 0 0-.184-.034c-.023 0-.045.001-.067.004h.003a.5213.5213 0 0 0-.253.031l.004-.001a.4493.4493 0 0 0-.193.137l-.001.001a.921.921 0 0 0-.113.503v2.136c-.012.177.027.353.113.514.055.054.122.097.198.127.072.029.155.046.241.046s.17-.017.246-.047l-.004.002c.076-.03.143-.074.198-.127v-.01zm2.236-3.884h1.011l.761 3.203.778-3.203h.985l.099 4.623h-.727l-.078-3.213-.751 3.213h-.583l-.778-3.225-.072 3.225h-.735l.091-4.623zm4.768 0h1.576c.907 0 1.362.438 1.362 1.313 0 .838-.478 1.257-1.434 1.256H44.1v2.055h-.973l.006-4.623zm1.346 1.976c.096.01.194.003.286-.023a.7.7 0 0 0 .249-.123.7444.7444 0 0 0 .139-.525v.003c.001-.016.001-.035.001-.053 0-.13-.017-.257-.05-.377l.002.01a.345.345 0 0 0-.072-.127.4047.4047 0 0 0-.121-.092l-.002-.001a1.0004 1.0004 0 0 0-.382-.075c-.019 0-.037.001-.055.002h.003-.377v1.382h.377zm2.995-1.976h1.045l1.072 4.623h-.907l-.211-1.066h-.932l-.218 1.066h-.92l1.072-4.623zm.893 3.021-.364-1.941-.364 1.941h.727zm2.089-3.021h.681l1.303 2.637v-2.637h.808v4.623H52.6l-1.311-2.753v2.753h-.834l.002-4.623zm4.683 2.86-1.083-2.854h.913l.661 1.833.621-1.833h.893l-1.07 2.854v1.762h-.934v-1.762zM32.09 18.042v.242h-.794v1.878h-.332v-1.878h-.798v-.242h1.924zm2.488 2.12h-.264a.119.119 0 0 1-.065-.02.1172.1172 0 0 1-.043-.048v-.001l-.23-.503h-1.101l-.229.503a.1442.1442 0 0 1-.035.057.1144.1144 0 0 1-.066.02h-.263l.973-2.12h.339l.984 2.111zm-1.611-.787h.918l-.389-.863a1.417 1.417 0 0 1-.07-.189l-.003-.011c-.014.04-.025.079-.037.113l-.035.089-.385.861zm3.288.579c.061.003.122.003.183 0 .053-.005.105-.013.156-.025.047-.01.094-.023.14-.038.043-.015.086-.034.13-.053v-.477h-.394a.0605.0605 0 0 1-.024-.004h.001a.092.092 0 0 1-.024-.013.0612.0612 0 0 1-.015-.017.0414.0414 0 0 1-.005-.019v-.165h.755v.813c-.118.074-.255.133-.4.171l-.01.002c-.08.02-.161.034-.243.043-.085.009-.184.014-.284.014h-.011c-.172 0-.336-.029-.489-.083l.01.003c-.15-.052-.279-.127-.391-.223l.002.001a1.035 1.035 0 0 1-.249-.33l-.003-.006a1.0498 1.0498 0 0 1-.089-.426v-.015.001-.013c0-.155.032-.303.09-.437l-.003.007c.056-.126.142-.24.251-.336.111-.095.243-.17.389-.22.167-.054.344-.081.522-.079.091 0 .181.006.27.018.079.011.157.029.231.054.069.022.134.05.194.084s.117.07.17.111l-.093.131a.0786.0786 0 0 1-.032.028.0926.0926 0 0 1-.044.011.139.139 0 0 1-.061-.017h.001c-.039-.019-.07-.035-.1-.053l.005.003a.798.798 0 0 0-.125-.055l-.006-.002a1.208 1.208 0 0 0-.171-.046l-.008-.001c-.07-.012-.151-.018-.234-.018h-.014.001-.012c-.13 0-.255.022-.372.061l.008-.002a.8097.8097 0 0 0-.286.169l.001-.001a.742.742 0 0 0-.182.263c-.041.105-.065.227-.065.354s.024.249.068.36l-.002-.007c.043.099.109.19.195.267.08.073.177.13.284.168.124.037.255.051.385.042zm3.102-.033h1.063v.242h-1.387v-2.12h.333l-.008 1.878zm2.167.241h-.333v-2.12h.333v2.12zm1.238-2.11c.02.01.036.023.05.039l1.422 1.598c-.001-.011-.001-.024-.001-.038s.001-.026.002-.039v.002-1.58h.29v2.129H44.347a.16.16 0 0 1-.062-.013h.001a.1896.1896 0 0 1-.052-.04l-1.42-1.597v1.649h-.278v-2.121h.173c.019 0 .038.003.055.01zm4.212-.01v.233h-1.179v.7h.955v.225h-.955v.723h1.179v.233h-1.522v-2.115h1.522zM12.111 4.948l14.773 3.619V21.25l-14.773-3.617V4.947zm-.947-1.081v14.382l16.666 4.085V7.954L11.164 3.868z"/>
      <path d="M20.096 29.01 3.429 24.922V10.541l16.667 4.086V29.01z"/>
      <path d="m11.44 4.785 14.58 3.574-6.2 5.352-14.582-3.576 6.202-5.35zm-.276-.918-7.735 6.674 16.667 4.086 7.734-6.674-16.666-4.086zm9.87 24.333 6.795-5.865-6.796-1.667v7.533z"/>
    </symbol>
  </defs>
</svg>